<mxfile host="app.diagrams.net" modified="2020-09-02T23:34:47.860Z" agent="5.0 (X11)" etag="TJpN-3WuVUyEU7p1PKUM" version="13.6.6" type="github" pages="2">
  <diagram id="VC_2qRlN75CcKWWAJQJ7" name="with_elements(pass())">
    <mxGraphModel dx="2025" dy="1123" grid="1" gridSize="10" guides="1" tooltips="1" connect="1" arrows="1" fold="1" page="1" pageScale="1" pageWidth="980" pageHeight="690" math="1" shadow="0">
      <root>
        <mxCell id="0" />
        <mxCell id="1" parent="0" />
        <mxCell id="OqvAHqhVPhzf_PtM_NJU-2" style="edgeStyle=orthogonalEdgeStyle;rounded=0;orthogonalLoop=1;jettySize=auto;html=1;curved=1;" edge="1" parent="1">
          <mxGeometry relative="1" as="geometry">
            <mxPoint x="80" y="360" as="targetPoint" />
            <mxPoint x="80" y="120" as="sourcePoint" />
          </mxGeometry>
        </mxCell>
        <mxCell id="OqvAHqhVPhzf_PtM_NJU-7" value="$$\scriptsize\mathrm{Block}_c$$" style="edgeLabel;html=1;align=left;verticalAlign=middle;resizable=0;points=[];labelBackgroundColor=none;" vertex="1" connectable="0" parent="OqvAHqhVPhzf_PtM_NJU-2">
          <mxGeometry x="-0.1" y="1" relative="1" as="geometry">
            <mxPoint y="12" as="offset" />
          </mxGeometry>
        </mxCell>
        <mxCell id="OqvAHqhVPhzf_PtM_NJU-9" value="$$\scriptsize\mathrm{Block}_c\{A\}$$" style="edgeLabel;html=1;align=left;verticalAlign=middle;resizable=0;points=[];labelBackgroundColor=none;" vertex="1" connectable="0" parent="OqvAHqhVPhzf_PtM_NJU-2">
          <mxGeometry x="-0.8362" y="2" relative="1" as="geometry">
            <mxPoint as="offset" />
          </mxGeometry>
        </mxCell>
        <mxCell id="OqvAHqhVPhzf_PtM_NJU-10" value="$$\scriptsize\mathrm{Block}_c\{A\}$$" style="edgeLabel;html=1;align=left;verticalAlign=middle;resizable=0;points=[];labelBackgroundColor=none;" vertex="1" connectable="0" parent="OqvAHqhVPhzf_PtM_NJU-2">
          <mxGeometry x="0.7902" relative="1" as="geometry">
            <mxPoint y="5.240000000000001" as="offset" />
          </mxGeometry>
        </mxCell>
        <mxCell id="OqvAHqhVPhzf_PtM_NJU-3" value="$$\mathrm{with\_elements}(\mathrm{pass}()) \Rightarrow \mathrm{pass}()$$" style="text;html=1;align=center;verticalAlign=middle;resizable=0;points=[];autosize=1;" vertex="1" parent="1">
          <mxGeometry x="10" y="60" width="420" height="20" as="geometry" />
        </mxCell>
        <mxCell id="OqvAHqhVPhzf_PtM_NJU-4" style="edgeStyle=orthogonalEdgeStyle;rounded=0;orthogonalLoop=1;jettySize=auto;html=1;curved=1;" edge="1" parent="1">
          <mxGeometry relative="1" as="geometry">
            <mxPoint x="360" y="360" as="targetPoint" />
            <mxPoint x="360" y="120" as="sourcePoint" />
            <Array as="points">
              <mxPoint x="360" y="180" />
              <mxPoint x="360" y="180" />
            </Array>
          </mxGeometry>
        </mxCell>
        <mxCell id="OqvAHqhVPhzf_PtM_NJU-11" value="$$\scriptsize\mathrm{Block}_c\{A\}$$" style="edgeLabel;html=1;align=left;verticalAlign=middle;resizable=0;points=[];labelBackgroundColor=none;" vertex="1" connectable="0" parent="OqvAHqhVPhzf_PtM_NJU-4">
          <mxGeometry x="0.1125" y="4" relative="1" as="geometry">
            <mxPoint x="-4" y="-13.67" as="offset" />
          </mxGeometry>
        </mxCell>
        <mxCell id="OqvAHqhVPhzf_PtM_NJU-5" style="edgeStyle=orthogonalEdgeStyle;rounded=0;orthogonalLoop=1;jettySize=auto;html=1;endArrow=none;endFill=0;curved=1;" edge="1" parent="1">
          <mxGeometry relative="1" as="geometry">
            <mxPoint x="80" y="320" as="targetPoint" />
            <mxPoint x="80" y="160" as="sourcePoint" />
            <Array as="points">
              <mxPoint x="80" y="200" />
              <mxPoint x="160" y="200" />
              <mxPoint x="160" y="280" />
              <mxPoint x="80" y="280" />
            </Array>
          </mxGeometry>
        </mxCell>
        <mxCell id="OqvAHqhVPhzf_PtM_NJU-8" value="$$\small A$$" style="edgeLabel;html=1;align=left;verticalAlign=middle;resizable=0;points=[];labelBackgroundColor=none;" vertex="1" connectable="0" parent="OqvAHqhVPhzf_PtM_NJU-5">
          <mxGeometry x="0.0409" relative="1" as="geometry">
            <mxPoint y="-6.21" as="offset" />
          </mxGeometry>
        </mxCell>
        <mxCell id="OqvAHqhVPhzf_PtM_NJU-6" value="" style="html=1;shadow=0;dashed=0;align=center;verticalAlign=middle;shape=mxgraph.arrows2.arrow;dy=0.6;dx=40;notch=0;strokeColor=none;fillColor=#E6E6E6;" vertex="1" parent="1">
          <mxGeometry x="210" y="190" width="100" height="100" as="geometry" />
        </mxCell>
        <mxCell id="OqvAHqhVPhzf_PtM_NJU-12" value="$$\mathrm{with\_column}(k,\mathrm{pass}()) \Rightarrow \mathrm{pass}()$$" style="text;html=1;align=center;verticalAlign=middle;resizable=0;points=[];autosize=1;" vertex="1" parent="1">
          <mxGeometry x="370" y="380" width="420" height="20" as="geometry" />
        </mxCell>
        <mxCell id="OqvAHqhVPhzf_PtM_NJU-13" style="edgeStyle=orthogonalEdgeStyle;rounded=0;orthogonalLoop=1;jettySize=auto;html=1;curved=1;" edge="1" parent="1">
          <mxGeometry relative="1" as="geometry">
            <mxPoint x="440" y="680" as="targetPoint" />
            <mxPoint x="440" y="440" as="sourcePoint" />
          </mxGeometry>
        </mxCell>
        <mxCell id="OqvAHqhVPhzf_PtM_NJU-14" value="$$\scriptsize\mathrm{Tuple}$$" style="edgeLabel;html=1;align=left;verticalAlign=middle;resizable=0;points=[];labelBackgroundColor=none;" vertex="1" connectable="0" parent="OqvAHqhVPhzf_PtM_NJU-13">
          <mxGeometry x="-0.1" y="1" relative="1" as="geometry">
            <mxPoint y="12" as="offset" />
          </mxGeometry>
        </mxCell>
        <mxCell id="OqvAHqhVPhzf_PtM_NJU-15" value="$$\scriptsize\mathrm{Tuple}\{A_1,\ldots,A_N\}$$" style="edgeLabel;html=1;align=left;verticalAlign=middle;resizable=0;points=[];labelBackgroundColor=none;" vertex="1" connectable="0" parent="OqvAHqhVPhzf_PtM_NJU-13">
          <mxGeometry x="-0.8362" y="2" relative="1" as="geometry">
            <mxPoint as="offset" />
          </mxGeometry>
        </mxCell>
        <mxCell id="OqvAHqhVPhzf_PtM_NJU-16" value="$$\scriptsize\mathrm{Tuple}\{A_1,\ldots,A_N\}$$" style="edgeLabel;html=1;align=left;verticalAlign=middle;resizable=0;points=[];labelBackgroundColor=none;" vertex="1" connectable="0" parent="OqvAHqhVPhzf_PtM_NJU-13">
          <mxGeometry x="0.7902" relative="1" as="geometry">
            <mxPoint y="5.240000000000001" as="offset" />
          </mxGeometry>
        </mxCell>
        <mxCell id="OqvAHqhVPhzf_PtM_NJU-17" style="edgeStyle=orthogonalEdgeStyle;rounded=0;orthogonalLoop=1;jettySize=auto;html=1;curved=1;" edge="1" parent="1">
          <mxGeometry relative="1" as="geometry">
            <mxPoint x="720" y="680" as="targetPoint" />
            <mxPoint x="720" y="440" as="sourcePoint" />
            <Array as="points">
              <mxPoint x="720" y="500" />
              <mxPoint x="720" y="500" />
            </Array>
          </mxGeometry>
        </mxCell>
        <mxCell id="OqvAHqhVPhzf_PtM_NJU-18" value="$$\scriptsize\mathrm{Tuple}\{A_1,\ldots,A_N\}$$" style="edgeLabel;html=1;align=left;verticalAlign=middle;resizable=0;points=[];labelBackgroundColor=none;" vertex="1" connectable="0" parent="OqvAHqhVPhzf_PtM_NJU-17">
          <mxGeometry x="0.1125" y="4" relative="1" as="geometry">
            <mxPoint x="-4" y="-13.67" as="offset" />
          </mxGeometry>
        </mxCell>
        <mxCell id="OqvAHqhVPhzf_PtM_NJU-19" style="edgeStyle=orthogonalEdgeStyle;rounded=0;orthogonalLoop=1;jettySize=auto;html=1;endArrow=none;endFill=0;curved=1;" edge="1" parent="1">
          <mxGeometry relative="1" as="geometry">
            <mxPoint x="440" y="640" as="targetPoint" />
            <mxPoint x="440" y="480" as="sourcePoint" />
            <Array as="points">
              <mxPoint x="440" y="520" />
              <mxPoint x="520" y="520" />
              <mxPoint x="520" y="600" />
              <mxPoint x="440" y="600" />
            </Array>
          </mxGeometry>
        </mxCell>
        <mxCell id="OqvAHqhVPhzf_PtM_NJU-20" value="$$\small A_k$$" style="edgeLabel;html=1;align=left;verticalAlign=middle;resizable=0;points=[];labelBackgroundColor=none;" vertex="1" connectable="0" parent="OqvAHqhVPhzf_PtM_NJU-19">
          <mxGeometry x="0.0409" relative="1" as="geometry">
            <mxPoint y="-6.21" as="offset" />
          </mxGeometry>
        </mxCell>
        <mxCell id="OqvAHqhVPhzf_PtM_NJU-22" value="$$\small [k]$$" style="edgeLabel;html=1;align=left;verticalAlign=middle;resizable=0;points=[];labelBackgroundColor=none;" vertex="1" connectable="0" parent="OqvAHqhVPhzf_PtM_NJU-19">
          <mxGeometry x="-0.8254" y="11" relative="1" as="geometry">
            <mxPoint x="-11" y="-18" as="offset" />
          </mxGeometry>
        </mxCell>
        <mxCell id="OqvAHqhVPhzf_PtM_NJU-21" value="" style="html=1;shadow=0;dashed=0;align=center;verticalAlign=middle;shape=mxgraph.arrows2.arrow;dy=0.6;dx=40;notch=0;strokeColor=none;fillColor=#E6E6E6;" vertex="1" parent="1">
          <mxGeometry x="570" y="510" width="100" height="100" as="geometry" />
        </mxCell>
      </root>
    </mxGraphModel>
  </diagram>
  <diagram name="chain_of(p,filler(x))" id="fRJYNDEdB2XgRZ1Q16qM">
    <mxGraphModel dx="3240" dy="1796" grid="1" gridSize="10" guides="1" tooltips="1" connect="1" arrows="1" fold="1" page="1" pageScale="1" pageWidth="980" pageHeight="690" math="1" shadow="0">
      <root>
        <mxCell id="X9Sxgdq9AvsKO_ialkme-0" />
        <mxCell id="X9Sxgdq9AvsKO_ialkme-1" parent="X9Sxgdq9AvsKO_ialkme-0" />
        <mxCell id="X9Sxgdq9AvsKO_ialkme-22" value="" style="html=1;shadow=0;dashed=0;align=center;verticalAlign=middle;shape=mxgraph.arrows2.arrow;dy=0.6;dx=40;notch=0;strokeColor=none;fillColor=#E6E6E6;" vertex="1" parent="X9Sxgdq9AvsKO_ialkme-1">
          <mxGeometry x="170" y="190" width="100" height="100" as="geometry" />
        </mxCell>
        <mxCell id="X9Sxgdq9AvsKO_ialkme-23" value="$$\mathrm{chain\_of}(p, \mathrm{filler}(x)) \Rightarrow \mathrm{filler}(x)$$" style="text;html=1;align=center;verticalAlign=middle;resizable=0;points=[];autosize=1;" vertex="1" parent="X9Sxgdq9AvsKO_ialkme-1">
          <mxGeometry x="40" y="60" width="410" height="20" as="geometry" />
        </mxCell>
        <mxCell id="X9Sxgdq9AvsKO_ialkme-27" style="edgeStyle=orthogonalEdgeStyle;curved=1;rounded=0;orthogonalLoop=1;jettySize=auto;html=1;startArrow=none;startFill=0;endArrow=classic;endFill=1;entryX=0.5;entryY=0;entryDx=0;entryDy=0;" edge="1" parent="X9Sxgdq9AvsKO_ialkme-1" source="X9Sxgdq9AvsKO_ialkme-24" target="X9Sxgdq9AvsKO_ialkme-25">
          <mxGeometry relative="1" as="geometry">
            <mxPoint x="80" y="230" as="targetPoint" />
          </mxGeometry>
        </mxCell>
        <mxCell id="X9Sxgdq9AvsKO_ialkme-33" value="$$\small B$$" style="edgeLabel;html=1;align=left;verticalAlign=middle;resizable=0;points=[];labelBackgroundColor=none;" vertex="1" connectable="0" parent="X9Sxgdq9AvsKO_ialkme-27">
          <mxGeometry x="-0.2167" y="1" relative="1" as="geometry">
            <mxPoint x="-1" y="4.33" as="offset" />
          </mxGeometry>
        </mxCell>
        <mxCell id="X9Sxgdq9AvsKO_ialkme-31" style="edgeStyle=orthogonalEdgeStyle;curved=1;rounded=0;orthogonalLoop=1;jettySize=auto;html=1;startArrow=none;startFill=0;endArrow=classic;endFill=1;entryX=0.5;entryY=0;entryDx=0;entryDy=0;" edge="1" parent="X9Sxgdq9AvsKO_ialkme-1" target="X9Sxgdq9AvsKO_ialkme-24">
          <mxGeometry relative="1" as="geometry">
            <mxPoint x="79.8" y="150" as="targetPoint" />
            <mxPoint x="80" y="120" as="sourcePoint" />
            <Array as="points" />
          </mxGeometry>
        </mxCell>
        <mxCell id="X9Sxgdq9AvsKO_ialkme-32" value="$$\small A$$" style="edgeLabel;html=1;align=left;verticalAlign=middle;resizable=0;points=[];labelBackgroundColor=none;" vertex="1" connectable="0" parent="X9Sxgdq9AvsKO_ialkme-31">
          <mxGeometry x="-0.3333" relative="1" as="geometry">
            <mxPoint y="6.67" as="offset" />
          </mxGeometry>
        </mxCell>
        <mxCell id="X9Sxgdq9AvsKO_ialkme-24" value="$$p$$" style="rounded=1;whiteSpace=wrap;html=1;labelBackgroundColor=none;fillColor=#f5f5f5;align=center;strokeColor=#666666;fontColor=#333333;" vertex="1" parent="X9Sxgdq9AvsKO_ialkme-1">
          <mxGeometry x="40" y="160" width="80" height="40" as="geometry" />
        </mxCell>
        <mxCell id="X9Sxgdq9AvsKO_ialkme-29" style="edgeStyle=orthogonalEdgeStyle;curved=1;rounded=0;orthogonalLoop=1;jettySize=auto;html=1;entryX=0.5;entryY=0;entryDx=0;entryDy=0;dashed=1;dashPattern=1 2;startArrow=none;startFill=0;endArrow=classic;endFill=1;" edge="1" parent="X9Sxgdq9AvsKO_ialkme-1" source="X9Sxgdq9AvsKO_ialkme-25" target="X9Sxgdq9AvsKO_ialkme-26">
          <mxGeometry relative="1" as="geometry" />
        </mxCell>
        <mxCell id="X9Sxgdq9AvsKO_ialkme-34" value="$$\small 1$$" style="edgeLabel;html=1;align=left;verticalAlign=middle;resizable=0;points=[];labelBackgroundColor=none;" vertex="1" connectable="0" parent="X9Sxgdq9AvsKO_ialkme-29">
          <mxGeometry x="0.2" y="-4" relative="1" as="geometry">
            <mxPoint x="4" as="offset" />
          </mxGeometry>
        </mxCell>
        <mxCell id="X9Sxgdq9AvsKO_ialkme-25" value="" style="rounded=0;whiteSpace=wrap;html=1;labelBackgroundColor=none;align=center;fillColor=#000000;" vertex="1" parent="X9Sxgdq9AvsKO_ialkme-1">
          <mxGeometry x="70" y="240" width="20" height="10" as="geometry" />
        </mxCell>
        <mxCell id="X9Sxgdq9AvsKO_ialkme-30" style="edgeStyle=orthogonalEdgeStyle;curved=1;rounded=0;orthogonalLoop=1;jettySize=auto;html=1;startArrow=none;startFill=0;endArrow=classic;endFill=1;" edge="1" parent="X9Sxgdq9AvsKO_ialkme-1" source="X9Sxgdq9AvsKO_ialkme-26">
          <mxGeometry relative="1" as="geometry">
            <mxPoint x="80" y="360" as="targetPoint" />
          </mxGeometry>
        </mxCell>
        <mxCell id="X9Sxgdq9AvsKO_ialkme-35" value="$$\small C$$" style="edgeLabel;html=1;align=left;verticalAlign=middle;resizable=0;points=[];labelBackgroundColor=none;" vertex="1" connectable="0" parent="X9Sxgdq9AvsKO_ialkme-30">
          <mxGeometry x="-0.2222" y="1" relative="1" as="geometry">
            <mxPoint x="-1" y="4.4399999999999995" as="offset" />
          </mxGeometry>
        </mxCell>
        <mxCell id="X9Sxgdq9AvsKO_ialkme-26" value="$$x$$" style="ellipse;whiteSpace=wrap;html=1;labelBackgroundColor=none;align=center;fillColor=#f5f5f5;strokeColor=#666666;fontColor=#333333;" vertex="1" parent="X9Sxgdq9AvsKO_ialkme-1">
          <mxGeometry x="40" y="280" width="80" height="40" as="geometry" />
        </mxCell>
        <mxCell id="X9Sxgdq9AvsKO_ialkme-38" style="edgeStyle=orthogonalEdgeStyle;curved=1;rounded=0;orthogonalLoop=1;jettySize=auto;html=1;startArrow=none;startFill=0;endArrow=classic;endFill=1;entryX=0.5;entryY=0;entryDx=0;entryDy=0;" edge="1" parent="X9Sxgdq9AvsKO_ialkme-1" target="X9Sxgdq9AvsKO_ialkme-43">
          <mxGeometry relative="1" as="geometry">
            <mxPoint x="360" y="160" as="targetPoint" />
            <mxPoint x="360" y="160" as="sourcePoint" />
            <Array as="points" />
          </mxGeometry>
        </mxCell>
        <mxCell id="X9Sxgdq9AvsKO_ialkme-39" value="$$\small A$$" style="edgeLabel;html=1;align=left;verticalAlign=middle;resizable=0;points=[];labelBackgroundColor=none;" vertex="1" connectable="0" parent="X9Sxgdq9AvsKO_ialkme-38">
          <mxGeometry x="-0.3333" relative="1" as="geometry">
            <mxPoint y="6.86" as="offset" />
          </mxGeometry>
        </mxCell>
        <mxCell id="X9Sxgdq9AvsKO_ialkme-41" style="edgeStyle=orthogonalEdgeStyle;curved=1;rounded=0;orthogonalLoop=1;jettySize=auto;html=1;entryX=0.5;entryY=0;entryDx=0;entryDy=0;dashed=1;dashPattern=1 2;startArrow=none;startFill=0;endArrow=classic;endFill=1;" edge="1" parent="X9Sxgdq9AvsKO_ialkme-1" source="X9Sxgdq9AvsKO_ialkme-43" target="X9Sxgdq9AvsKO_ialkme-46">
          <mxGeometry relative="1" as="geometry" />
        </mxCell>
        <mxCell id="X9Sxgdq9AvsKO_ialkme-42" value="$$\small 1$$" style="edgeLabel;html=1;align=left;verticalAlign=middle;resizable=0;points=[];labelBackgroundColor=none;" vertex="1" connectable="0" parent="X9Sxgdq9AvsKO_ialkme-41">
          <mxGeometry x="0.2" y="-4" relative="1" as="geometry">
            <mxPoint x="4" as="offset" />
          </mxGeometry>
        </mxCell>
        <mxCell id="X9Sxgdq9AvsKO_ialkme-43" value="" style="rounded=0;whiteSpace=wrap;html=1;labelBackgroundColor=none;align=center;fillColor=#000000;" vertex="1" parent="X9Sxgdq9AvsKO_ialkme-1">
          <mxGeometry x="350" y="200" width="20" height="10" as="geometry" />
        </mxCell>
        <mxCell id="X9Sxgdq9AvsKO_ialkme-44" style="edgeStyle=orthogonalEdgeStyle;curved=1;rounded=0;orthogonalLoop=1;jettySize=auto;html=1;startArrow=none;startFill=0;endArrow=classic;endFill=1;" edge="1" parent="X9Sxgdq9AvsKO_ialkme-1" source="X9Sxgdq9AvsKO_ialkme-46">
          <mxGeometry relative="1" as="geometry">
            <mxPoint x="360" y="320" as="targetPoint" />
          </mxGeometry>
        </mxCell>
        <mxCell id="X9Sxgdq9AvsKO_ialkme-45" value="$$\small C$$" style="edgeLabel;html=1;align=left;verticalAlign=middle;resizable=0;points=[];labelBackgroundColor=none;" vertex="1" connectable="0" parent="X9Sxgdq9AvsKO_ialkme-44">
          <mxGeometry x="-0.2222" y="1" relative="1" as="geometry">
            <mxPoint x="-1" y="4.4399999999999995" as="offset" />
          </mxGeometry>
        </mxCell>
        <mxCell id="X9Sxgdq9AvsKO_ialkme-46" value="$$x$$" style="ellipse;whiteSpace=wrap;html=1;labelBackgroundColor=none;align=center;fillColor=#f5f5f5;strokeColor=#666666;fontColor=#333333;" vertex="1" parent="X9Sxgdq9AvsKO_ialkme-1">
          <mxGeometry x="320" y="240" width="80" height="40" as="geometry" />
        </mxCell>
      </root>
    </mxGraphModel>
  </diagram>
</mxfile>
